<svg width="156" height="39" viewBox="0 0 156 39" fill="none" xmlns="http://www.w3.org/2000/svg">
<path d="M16.4992 2H37.5808L22.0816 24.9729H1L16.4992 2Z" fill="#1565D8"/>
<path d="M17.4221 27.102L11.4189 36H33.5005L48.9997 13.0271H32.7021L23.2061 27.102H17.4221Z" fill="#FFC531"/>
<path d="M73.9489 18.777L71.8395 19.0071C71.7798 18.794 71.6754 18.5938 71.5263 18.4062C71.3814 18.2188 71.1854 18.0675 70.9382 17.9524C70.6911 17.8374 70.3885 17.7798 70.0305 17.7798C69.549 17.7798 69.1442 17.8842 68.8161 18.093C68.4922 18.3018 68.3324 18.5724 68.3366 18.9048C68.3324 19.1903 68.4368 19.4226 68.6499 19.6016C68.8672 19.7805 69.2251 19.9276 69.7237 20.0426L71.3984 20.4006C72.3274 20.6009 73.0178 20.9183 73.4695 21.353C73.9254 21.7876 74.1555 22.3565 74.1598 23.0597C74.1555 23.6776 73.9744 24.223 73.6165 24.696C73.2628 25.1648 72.7706 25.5312 72.1399 25.7955C71.5092 26.0597 70.7848 26.1918 69.9666 26.1918C68.7649 26.1918 67.7976 25.9403 67.0646 25.4375C66.3317 24.9304 65.8949 24.2251 65.7543 23.3217L68.0107 23.1044C68.1129 23.5476 68.3303 23.8821 68.6626 24.108C68.995 24.3338 69.4276 24.4467 69.9602 24.4467C70.5099 24.4467 70.951 24.3338 71.2834 24.108C71.62 23.8821 71.7884 23.603 71.7884 23.2706C71.7884 22.9893 71.6797 22.7571 71.4624 22.5739C71.2493 22.3906 70.9169 22.25 70.4652 22.152L68.7905 21.8004C67.8487 21.6044 67.152 21.2741 66.7003 20.8097C66.2486 20.3409 66.0249 19.7486 66.0291 19.0327C66.0249 18.4276 66.1889 17.9034 66.5213 17.4602C66.858 17.0128 67.3246 16.6676 67.9212 16.4247C68.522 16.1776 69.2145 16.054 69.9986 16.054C71.1491 16.054 72.0547 16.299 72.7152 16.7891C73.38 17.2791 73.7912 17.9418 73.9489 18.777ZM77.506 29.6818C77.1907 29.6818 76.8988 29.6563 76.6303 29.6051C76.3661 29.5582 76.1552 29.5028 75.9975 29.4389L76.5344 27.6364C76.8711 27.7344 77.1715 27.7813 77.4357 27.777C77.6999 27.7727 77.9322 27.6896 78.1325 27.5277C78.337 27.37 78.5096 27.1058 78.6502 26.7351L78.8484 26.2045L75.288 16.1818H77.7425L80.0053 23.5966H80.1076L82.3768 16.1818H84.8377L80.9066 27.1889C80.7234 27.7088 80.4805 28.1541 80.1779 28.5249C79.8754 28.8999 79.5046 29.1854 79.0657 29.3814C78.631 29.5817 78.1112 29.6818 77.506 29.6818ZM88.5483 22.919L88.5419 20.1257H88.9126L92.4411 16.1818H95.1449L90.8047 21.0142H90.3253L88.5483 22.919ZM86.4389 26V12.9091H88.7528V26H86.4389ZM92.6009 26L89.4048 21.532L90.9645 19.902L95.3686 26H92.6009ZM98.7963 22.919L98.79 20.1257H99.1607L102.689 16.1818H105.393L101.053 21.0142H100.573L98.7963 22.919ZM96.687 26V12.9091H99.0009V26H96.687ZM102.849 26L99.6529 21.532L101.213 19.902L105.617 26H102.849ZM109.76 26.1982C109.138 26.1982 108.578 26.0874 108.079 25.8658C107.585 25.6399 107.193 25.3075 106.903 24.8686C106.618 24.4297 106.475 23.8885 106.475 23.245C106.475 22.6911 106.577 22.233 106.782 21.8707C106.986 21.5085 107.265 21.2188 107.619 21.0014C107.973 20.7841 108.371 20.62 108.814 20.5092C109.262 20.3942 109.724 20.3111 110.201 20.2599C110.777 20.2003 111.243 20.147 111.601 20.1001C111.959 20.049 112.219 19.9723 112.381 19.87C112.547 19.7635 112.63 19.5994 112.63 19.3778V19.3395C112.63 18.858 112.488 18.4851 112.202 18.2209C111.917 17.9567 111.505 17.8246 110.968 17.8246C110.402 17.8246 109.952 17.9482 109.62 18.1953C109.292 18.4425 109.07 18.7344 108.955 19.071L106.794 18.7642C106.965 18.1676 107.246 17.669 107.638 17.2685C108.03 16.8636 108.51 16.5611 109.076 16.3608C109.643 16.1562 110.27 16.054 110.956 16.054C111.429 16.054 111.9 16.1094 112.368 16.2202C112.837 16.331 113.265 16.5142 113.653 16.7699C114.041 17.0213 114.352 17.3643 114.586 17.799C114.825 18.2337 114.944 18.777 114.944 19.429V26H112.72V24.6513H112.643C112.502 24.924 112.304 25.1797 112.049 25.4183C111.797 25.6527 111.48 25.8423 111.096 25.9872C110.717 26.1278 110.272 26.1982 109.76 26.1982ZM110.361 24.4979C110.826 24.4979 111.228 24.4062 111.569 24.223C111.91 24.0355 112.172 23.7884 112.355 23.4815C112.543 23.1747 112.637 22.8402 112.637 22.478V21.321C112.564 21.3807 112.441 21.4361 112.266 21.4872C112.096 21.5384 111.904 21.5831 111.691 21.6214C111.478 21.6598 111.267 21.6939 111.058 21.7237C110.849 21.7536 110.668 21.7791 110.515 21.8004C110.169 21.8473 109.86 21.924 109.588 22.0305C109.315 22.1371 109.1 22.2862 108.942 22.478C108.784 22.6655 108.706 22.9084 108.706 23.2067C108.706 23.6328 108.861 23.9545 109.172 24.1719C109.483 24.3892 109.88 24.4979 110.361 24.4979ZM118.696 26.1406C118.309 26.1406 117.976 26.0043 117.699 25.7315C117.422 25.4588 117.286 25.1264 117.29 24.7344C117.286 24.3509 117.422 24.0227 117.699 23.75C117.976 23.4773 118.309 23.3409 118.696 23.3409C119.071 23.3409 119.397 23.4773 119.674 23.75C119.956 24.0227 120.098 24.3509 120.103 24.7344C120.098 24.9943 120.03 25.2308 119.898 25.4439C119.77 25.657 119.6 25.8274 119.387 25.9553C119.178 26.0788 118.948 26.1406 118.696 26.1406ZM125.317 26.1982C124.695 26.1982 124.134 26.0874 123.636 25.8658C123.142 25.6399 122.749 25.3075 122.46 24.8686C122.174 24.4297 122.031 23.8885 122.031 23.245C122.031 22.6911 122.134 22.233 122.338 21.8707C122.543 21.5085 122.822 21.2188 123.176 21.0014C123.529 20.7841 123.928 20.62 124.371 20.5092C124.818 20.3942 125.281 20.3111 125.758 20.2599C126.333 20.2003 126.8 20.147 127.158 20.1001C127.516 20.049 127.776 19.9723 127.938 19.87C128.104 19.7635 128.187 19.5994 128.187 19.3778V19.3395C128.187 18.858 128.044 18.4851 127.759 18.2209C127.473 17.9567 127.062 17.8246 126.525 17.8246C125.958 17.8246 125.509 17.9482 125.176 18.1953C124.848 18.4425 124.627 18.7344 124.512 19.071L122.351 18.7642C122.521 18.1676 122.803 17.669 123.195 17.2685C123.587 16.8636 124.066 16.5611 124.633 16.3608C125.2 16.1562 125.826 16.054 126.512 16.054C126.985 16.054 127.456 16.1094 127.925 16.2202C128.394 16.331 128.822 16.5142 129.21 16.7699C129.597 17.0213 129.909 17.3643 130.143 17.799C130.382 18.2337 130.501 18.777 130.501 19.429V26H128.276V24.6513H128.2C128.059 24.924 127.861 25.1797 127.605 25.4183C127.354 25.6527 127.036 25.8423 126.653 25.9872C126.274 26.1278 125.828 26.1982 125.317 26.1982ZM125.918 24.4979C126.382 24.4979 126.785 24.4062 127.126 24.223C127.467 24.0355 127.729 23.7884 127.912 23.4815C128.1 23.1747 128.193 22.8402 128.193 22.478V21.321C128.121 21.3807 127.997 21.4361 127.823 21.4872C127.652 21.5384 127.46 21.5831 127.247 21.6214C127.034 21.6598 126.823 21.6939 126.615 21.7237C126.406 21.7536 126.225 21.7791 126.071 21.8004C125.726 21.8473 125.417 21.924 125.144 22.0305C124.872 22.1371 124.656 22.2862 124.499 22.478C124.341 22.6655 124.262 22.9084 124.262 23.2067C124.262 23.6328 124.418 23.9545 124.729 24.1719C125.04 24.3892 125.436 24.4979 125.918 24.4979ZM132.828 26V16.1818H135.142V26H132.828ZM133.991 14.7884C133.624 14.7884 133.309 14.6669 133.045 14.424C132.781 14.1768 132.649 13.8807 132.649 13.5355C132.649 13.1861 132.781 12.8899 133.045 12.647C133.309 12.3999 133.624 12.2763 133.991 12.2763C134.362 12.2763 134.677 12.3999 134.937 12.647C135.201 12.8899 135.333 13.1861 135.333 13.5355C135.333 13.8807 135.201 14.1768 134.937 14.424C134.677 14.6669 134.362 14.7884 133.991 14.7884Z" fill="#1A1A1A"/>
</svg>
