<svg width="20" height="20" viewBox="0 0 20 20" fill="none" xmlns="http://www.w3.org/2000/svg">
<path d="M15.9277 17.634H18.0657C18.2538 17.637 18.4397 17.5943 18.6077 17.5098C18.7757 17.4252 18.9208 17.3012 19.0304 17.1484C19.1401 16.9956 19.2111 16.8185 19.2375 16.6323C19.2638 16.4461 19.2447 16.2562 19.1817 16.079C18.6365 14.9121 17.7735 13.9226 16.6915 13.2239C15.6095 12.5252 14.3525 12.1458 13.0647 12.129M13.0647 9.37C13.5459 9.37014 14.0225 9.27546 14.4672 9.09139C14.9118 8.90731 15.3158 8.63744 15.6562 8.2972C15.9965 7.95695 16.2665 7.55299 16.4507 7.10839C16.6349 6.66378 16.7297 6.18725 16.7297 5.706C16.731 5.22392 16.6372 4.74631 16.4536 4.30055C16.27 3.85479 16.0002 3.44965 15.6597 3.10834C15.3193 2.76704 14.9148 2.49628 14.4695 2.31158C14.0242 2.12688 13.5468 2.03187 13.0647 2.032M7.3397 9.485C8.44144 9.48236 9.49713 9.04276 10.2752 8.26268C11.0532 7.4826 11.49 6.42575 11.4897 5.324C11.4897 4.22309 11.0524 3.16727 10.2739 2.3888C9.49543 1.61034 8.43961 1.173 7.3387 1.173C6.23778 1.173 5.18196 1.61034 4.4035 2.3888C3.62503 3.16727 3.1877 4.22309 3.1877 5.324C3.18769 6.42575 3.62474 7.4825 4.40295 8.26239C5.18115 9.04228 6.23696 9.48162 7.3387 9.484M12.0247 18.827C12.3769 18.8265 12.7222 18.7286 13.0221 18.5439C13.3221 18.3593 13.5651 18.0953 13.7243 17.781C13.8834 17.4668 13.9525 17.1146 13.9238 16.7636C13.8951 16.4125 13.7698 16.0762 13.5617 15.792C12.8328 14.8245 11.8945 14.0344 10.817 13.4809C9.73947 12.9274 8.5507 12.6249 7.3397 12.596C6.12861 12.625 4.93979 12.9277 3.86227 13.4814C2.78475 14.035 1.84647 14.8253 1.1177 15.793C0.910352 16.0773 0.785596 16.4133 0.757203 16.764C0.728811 17.1147 0.797887 17.4664 0.956804 17.7803C1.11572 18.0942 1.3583 18.358 1.65774 18.5428C1.95719 18.7275 2.30186 18.8258 2.6537 18.827H12.0247Z" stroke="#939393" stroke-width="1.5" stroke-linecap="round" stroke-linejoin="round"/>
</svg>
